<svg version="1.1" xmlns="http://www.w3.org/2000/svg" style="display: block;" viewBox="0 0 2048 2048" width="512" height="512">
<path transform="translate(0,0)" fill="rgb(0,0,0)" d="M 341.376 40.6339 L 1064.3 40.4666 C 1074.68 40.4432 1086.06 39.4135 1096.11 42.3193 L 1098 42.8767 C 1155.85 59.4652 1175.19 102.54 1175.26 157.089 L 1174.91 973.087 L 1171.89 1031.17 C 1181.97 1022.1 1190.45 1010.02 1199.43 999.759 L 1287.61 895.012 C 1297.8 882.254 1314.91 857.497 1334.62 863.372 L 1336.5 864.003 C 1345.02 866.668 1353.07 871.295 1357.86 879.149 L 1358.5 880.242 C 1360.93 884.323 1362.76 888.376 1363.81 893.031 L 1364.23 895 C 1369.05 916.791 1331.6 948.922 1318.98 964.123 L 1199.14 1105 C 1196.37 1108.53 1195.51 1112.87 1191.7 1115.59 L 1688.38 1116.6 C 1685.73 1114.07 1684.04 1110.89 1681.82 1108.02 L 1541.99 936 C 1535.82 928.346 1526.93 920.482 1522.88 911.533 C 1515.36 894.919 1524.16 875.125 1540.52 867.871 L 1542 867.237 C 1566.54 856.311 1581.19 879.18 1593.97 896 L 1737.18 1071.05 C 1746.67 1083.11 1760.13 1095.77 1766.73 1109.61 C 1770.53 1117.57 1771.53 1116.55 1779.76 1116.55 L 1917.92 1116.23 C 1975.66 1115.87 2017.91 1107.69 2039.03 1177.59 C 2041.02 1184.18 2040.23 1192.47 2040.24 1199.36 L 2040.28 1236.38 C 2040.29 1270.95 2051.66 1328.54 2011.8 1344.71 C 1992.21 1352.66 1970.78 1342.97 1959.29 1346.39 L 1926.3 1549.01 L 1887.45 1774.72 C 1878.06 1838.92 1872.88 1898.63 1792.46 1913.24 C 1773.03 1916.77 1750.9 1914.92 1731.2 1914.93 L 1160.37 1914.69 C 1152.25 1914.59 1138.69 1909.15 1135.78 1918.64 C 1095.77 2048.84 907.942 2030.95 906.01 1883.17 L 349.261 1882.28 C 349.133 1901.44 347.536 1917.59 341.028 1935.79 C 302.371 2043.88 120.198 2027.91 117.732 1884.16 C 67.1697 1879.26 45.1087 1889.9 45.0924 1825.71 L 45.0792 180.227 C 45.0874 144.282 43.0364 109.066 66.9661 79 L 69.8678 75.5476 C 89.0481 55.106 115.58 41.5825 143.923 40.7888 L 341.376 40.6339 z"/>
<path transform="translate(0,0)" fill="rgb(69,123,157)" d="M 995.48 1882.36 C 1008.71 1881.82 1021.71 1882.06 1034.41 1886.09 C 1070.08 1897.41 1076.97 1924.2 1041.71 1940.45 L 1034.54 1942.5 C 989.064 1951.78 942.67 1886.64 995.48 1882.36 z"/>
<path transform="translate(0,0)" fill="rgb(69,123,157)" d="M 182.755 1886.21 L 282.178 1886.34 C 282.001 1903.53 279.133 1915.05 268.072 1928.4 C 229.773 1962.64 190.254 1930.47 182.755 1886.21 z"/>
<path transform="translate(0,0)" fill="rgb(69,123,157)" d="M 881.863 1763.09 L 984.893 1762.75 C 989.692 1779.35 987.179 1796.84 994.98 1816.63 L 228.866 1818.32 L 113.92 1818.02 L 114.016 1763.66 L 881.863 1763.09 z"/>
<path transform="translate(0,0)" fill="rgb(168,218,220)" d="M 873.234 762.174 L 1086.71 762.24 C 1093.59 762.265 1101.92 761.438 1108.64 762.685 L 1108.91 1116.21 L 906.452 1116.41 C 940.64 1109.47 932.291 1132.18 932.751 1072.81 L 932.974 849.086 C 932.941 820.449 934.246 791.143 930.456 762.717 L 873.234 762.174 z"/>
<path transform="translate(0,0)" fill="rgb(230,57,70)" d="M 1032.13 1182 L 1889.06 1182.12 C 1913.27 1182.14 1938.4 1180.42 1962.5 1182.01 C 1975.19 1182.85 1972.21 1199.57 1972.3 1209.19 L 1972.48 1240.11 C 1972.53 1252.72 1973.43 1266.07 1972.33 1278.59 L 1840.25 1278.48 L 898.416 1278.3 L 898.532 1216.78 C 898.562 1206.33 896.82 1192.11 900.166 1182.39 L 1032.13 1182 z"/>
<path transform="translate(0,0)" fill="rgb(168,218,220)" d="M 135.458 1696.69 C 132.672 1694.93 130.271 1695.32 127.674 1694.25 L 130.925 1692.7 C 144.422 1686.04 199.887 1679.22 223.841 1671.02 L 344 1629 C 447.599 1587.32 549.708 1524.19 629.02 1445.98 L 744.568 1321.49 L 776.998 1280.6 C 794.002 1257.59 809.507 1234.41 832.859 1217.17 L 831.681 1291.22 C 831.635 1300.21 829.511 1313.81 832.678 1322.11 L 833.184 1323.46 C 838.198 1336.01 852.72 1343.25 865.5 1345.09 L 867.058 1345.32 C 880.35 1347.11 895.328 1345.5 908.788 1345.22 C 911.265 1369.26 917.088 1393.34 921.404 1417.12 L 968.247 1672.24 C 969.646 1679.84 969.999 1689.92 972.738 1697.05 L 135.458 1696.69 z"/>
<path transform="translate(0,0)" fill="rgb(230,57,70)" d="M 976.478 1346.12 L 1893.37 1345.99 C 1891.83 1350.33 1891.7 1355.45 1891.03 1360 L 1821.01 1774.23 C 1817.56 1796.66 1817.8 1838.88 1788.98 1844.89 L 1787.5 1845.19 C 1772.24 1848.63 1754.88 1847.06 1739.21 1847.08 L 1128.94 1847.03 C 1118.13 1847.01 1106.03 1847.87 1095.45 1845.67 L 1094 1845.34 C 1056.27 1837.15 1053.18 1771.93 1048.76 1742.31 L 992.82 1441.06 C 987.243 1409.81 979.789 1377.66 976.478 1346.12 z"/>
<path transform="translate(0,0)" fill="rgb(0,0,0)" d="M 1716.85 1460.13 C 1749.13 1458.24 1751.75 1487.08 1751.86 1513.09 L 1752.05 1653.61 C 1752.04 1682.42 1760.86 1720.57 1722.21 1725.9 C 1684.07 1720.43 1686.86 1690.03 1686.82 1660.75 L 1686.74 1526.79 C 1686.74 1514.12 1682.65 1487.69 1691.21 1477.01 L 1692.05 1476 C 1699.21 1467.22 1706.23 1463.34 1716.85 1460.13 z"/>
<path transform="translate(0,0)" fill="rgb(0,0,0)" d="M 1579.96 1459.14 C 1615.27 1457.32 1611.94 1500.53 1611.96 1524.33 L 1611.9 1661.76 C 1611.85 1690.04 1617.47 1723.27 1578.64 1725.33 L 1577.32 1725.1 C 1542.49 1718.67 1546.88 1687.54 1546.87 1661.13 L 1546.78 1520.81 C 1546.77 1510.73 1545.2 1497.34 1547.64 1487.67 L 1547.96 1486.5 C 1552.09 1471.1 1564.91 1462.73 1579.96 1459.14 z"/>
<path transform="translate(0,0)" fill="rgb(0,0,0)" d="M 1152.64 1461.11 C 1198.5 1457.86 1192.13 1502.01 1192.17 1532.9 L 1192.41 1659.9 C 1192.52 1685.05 1197.41 1715.11 1168.2 1724.98 C 1136.26 1730.07 1127.44 1705.66 1127.29 1680.02 L 1127.06 1514.2 C 1127.04 1489.66 1123.41 1469.85 1152.64 1461.11 z"/>
<path transform="translate(0,0)" fill="rgb(0,0,0)" d="M 1441.83 1459.19 C 1462.25 1459.58 1471.61 1477.5 1472.59 1495.45 L 1473.06 1672.58 C 1473.07 1681.67 1474.93 1695.33 1471.7 1703.69 L 1471.14 1705 C 1465.68 1718.18 1453.49 1723.48 1439.96 1725.65 C 1407.17 1723.81 1407.01 1697.49 1407.05 1673.19 L 1407.25 1539.06 C 1407.31 1507.05 1399.87 1467.14 1441.83 1459.19 z"/>
<path transform="translate(0,0)" fill="rgb(0,0,0)" d="M 1297.84 1460.2 C 1337.26 1457.17 1333.69 1497.61 1333.74 1521.5 L 1333.84 1661.59 C 1333.81 1688.34 1338.73 1717.04 1305.2 1725.31 C 1266.05 1725 1266.63 1699.58 1266.7 1670.22 L 1266.97 1541.29 C 1267.05 1512.53 1260.89 1468.55 1297.84 1460.2 z"/>
<path transform="translate(0,0)" fill="rgb(241,250,238)" d="M 135.458 1695.97 L 111.118 1696.31 L 111.074 762.094 L 873.234 762.145 L 930.456 762.717 C 934.246 791.143 932.941 820.449 932.974 849.086 L 932.751 1072.81 C 932.291 1132.18 940.64 1109.47 906.452 1116.74 C 839.248 1122.17 833.396 1161.42 831.933 1217.17 C 809.507 1234.41 794.002 1257.59 776.998 1280.6 L 744.568 1321.49 L 629.02 1445.98 C 549.708 1524.19 447.599 1587.32 344 1629 L 223.841 1671.02 C 199.887 1679.22 144.422 1686.04 130.925 1692.7 L 127.674 1694.25 C 130.271 1695.32 132.672 1694.93 135.458 1695.97 z"/>
<path transform="translate(0,0)" fill="rgb(0,0,0)" d="M 253.807 814.413 C 305.465 810.878 350.826 844.121 360.922 895.169 C 363.693 909.181 362.09 926.054 362.104 940.369 L 362.14 1111.91 C 362.124 1143.95 365.153 1175.23 345.846 1203.09 C 328.695 1227.84 301.074 1242.63 271.915 1247.71 L 267.62 1248.3 C 219.784 1253.88 170.229 1214.81 164.841 1166.69 C 163.039 1150.6 164.211 1133.06 164.192 1116.83 L 164.078 938.41 C 164.08 923.125 162.646 906.198 165.154 891.133 C 172.224 848.676 212.526 818.719 253.807 814.413 z"/>
<path transform="translate(0,0)" fill="rgb(69,123,157)" d="M 253.347 881.183 C 307.495 877.013 295.983 936.682 295.822 969.409 L 296.021 1120.5 C 296.317 1131.23 299.198 1148.8 295.561 1158.46 L 294.922 1160 C 290.701 1170.42 284.5 1176.51 274.723 1181.54 C 258.84 1185.23 245.782 1180.83 236.218 1166.96 L 235.35 1165.67 C 231.337 1159.9 230.708 1153.57 230.322 1146.66 L 229.992 907 C 230.702 892.749 240.801 886.175 253.347 881.183 z"/>
<path transform="translate(0,0)" fill="rgb(69,123,157)" d="M 377.96 105.152 L 1045.59 105.195 C 1089.65 105.238 1110.3 103.325 1109.29 159.245 L 1108.92 697.003 L 842.25 697.16 L 110.778 696.996 L 110.653 185.794 C 110.624 172.152 107.842 153.592 111.456 140.6 L 112.914 135.719 C 116.591 124.95 125.357 115.604 135.573 110.775 L 137 110.112 C 157.954 99.8704 202.081 105.355 225.886 105.316 L 377.96 105.152 z"/>
<path transform="translate(0,0)" fill="rgb(0,0,0)" d="M 945.671 172.433 C 983.395 167.029 1006.88 180.38 1032.44 206.807 C 1061.07 236.409 1043.46 278.255 1036.17 316.318 L 1013.44 427.576 C 1044.39 449.235 1053.05 470.878 1053.36 507.081 L 1053.57 544.045 C 1053.73 600.601 1051.02 636.026 986.813 636.14 L 211.323 635.707 C 206.989 635.518 203.44 635.056 199.527 633.023 L 198 632.182 C 193.003 629.519 189.034 626.484 184.752 622.842 C 163.911 602.071 169.016 576.852 169.03 550.085 L 169.127 502.751 C 169.259 472.746 173.593 451.678 199.833 434.455 C 203.477 423.999 171.179 319.704 166.074 300.513 C 157.622 268.738 149.439 237.594 170.5 208.641 C 179.906 195.71 195.978 177.17 212.83 174.84 L 214.5 174.641 C 234.792 172.066 275.545 171.798 293.947 179.861 C 305.185 184.786 299.782 199.675 315.202 191.91 C 356.814 170.954 413.75 160.896 453.596 190.771 C 470.102 187.227 485.087 178.284 502.052 175.667 C 532.714 170.936 569.887 172.967 595.237 191.671 L 626.5 178.982 C 646.903 171.823 702.858 170.829 722.517 180.778 C 737.081 188.148 730.785 200.622 744.906 190.965 C 775.539 170.016 853.848 163.001 878.293 194.649 C 898.761 177.91 920.072 174.251 945.671 172.433 z"/>
<path transform="translate(0,0)" fill="rgb(230,57,70)" d="M 239.087 238.213 C 258.282 236.364 279.866 242.045 285.062 263.607 L 285.357 264.927 C 287.24 272.974 287.112 281.412 287.363 289.646 L 274.456 290.586 L 238.75 290.726 C 230.158 282.681 225.672 259.924 228.568 249.069 L 229.974 244.712 C 231.94 240.395 234.99 239.672 239.087 238.213 z"/>
<path transform="translate(0,0)" fill="rgb(168,218,220)" d="M 249.5 348.954 C 265.176 349.763 278.721 351.627 293.907 355.593 L 308.16 417.16 L 261.444 415.141 L 249.5 348.954 z"/>
<path transform="translate(0,0)" fill="rgb(168,218,220)" d="M 942.766 237.253 C 970.249 233.892 985.481 246.26 977.64 274.328 L 977.143 276 C 971.749 294.628 963.385 289.878 944.97 290.008 L 909.292 288.315 C 903.372 259.809 915.149 245.009 942.766 237.253 z"/>
<path transform="translate(0,0)" fill="rgb(168,218,220)" d="M 662.642 238.404 C 674.251 236.607 689.426 237.68 699.832 242.943 C 702.111 248.218 701.802 255.416 701.7 261.102 L 700.859 289.283 C 697.73 290.351 694.12 289.924 690.828 289.943 L 670.34 290.036 L 630.028 290.064 C 627.652 250.687 622.947 241.571 662.642 238.404 z"/>
<path transform="translate(0,0)" fill="rgb(230,57,70)" d="M 515.966 237.365 L 521.093 237.003 C 555.068 235.392 564.154 231.339 563.871 263.413 L 563.73 289.863 L 547.25 290.026 L 494.985 289.982 L 494.937 260.192 C 494.969 240.189 495.858 240.255 515.966 237.365 z"/>
<path transform="translate(0,0)" fill="rgb(230,57,70)" d="M 379.965 237.223 C 391.316 235.988 416.787 235.325 423.96 246.585 L 424.495 247.5 C 430.791 257.644 428.443 278.278 428.664 290.116 L 406.831 290.052 L 355.047 289.994 C 355.047 280.002 354.674 269.212 356.343 259.355 L 356.587 258 C 358.94 244.318 366.384 239.943 379.965 237.223 z"/>
<path transform="translate(0,0)" fill="rgb(168,218,220)" d="M 800.728 239.377 L 818.974 238.687 C 852.5 239.295 845.11 263.311 843.89 289.433 L 814.289 290.024 L 766.915 289.7 C 766.683 255.576 765.311 243.946 800.728 239.377 z"/>
<path transform="translate(0,0)" fill="rgb(168,218,220)" d="M 958.586 353.92 L 962.158 352.5 L 949.411 419.258 L 900.789 417.183 L 895.5 417.089 C 894.032 413.674 896.352 405.086 896.888 401.21 L 902.649 355.047 L 939.5 354.655 C 945.866 354.471 952.239 353.305 958.586 353.92 z"/>
<path transform="translate(0,0)" fill="rgb(230,57,70)" d="M 500.956 355.766 L 563.041 356.347 L 562.96 418.826 L 504.956 419.108 C 501.912 413.665 503.33 400.492 503.01 394 L 500.956 355.766 z"/>
<path transform="translate(0,0)" fill="rgb(168,218,220)" d="M 663.034 355.987 C 670.997 353.322 686.172 354.95 694.925 354.868 L 690.433 419.542 L 660.318 419.249 L 631.579 419.114 C 629.276 416.544 630.451 363.759 630.474 356.004 L 663.034 355.987 z"/>
<path transform="translate(0,0)" fill="rgb(230,57,70)" d="M 365.067 355.111 L 412.437 354.933 C 418.504 354.932 426.26 353.896 431.953 355.506 L 432.726 419.037 L 379.563 420.648 L 365.067 355.111 z"/>
<path transform="translate(0,0)" fill="rgb(168,218,220)" d="M 954.272 484.19 C 964.566 483.583 983.696 485.023 988.973 494.845 C 993.102 502.531 990.331 556.41 988.83 566.868 L 970.397 567.056 C 967.031 567.638 962.62 567.107 959.103 567.146 L 933.918 567.458 C 939.817 541.408 933.056 512.398 944.835 487.5 C 947.671 485.089 950.693 484.834 954.272 484.19 z"/>
<path transform="translate(0,0)" fill="rgb(168,218,220)" d="M 807.455 354.961 L 836.664 354.348 C 839.43 359.505 830.324 412.372 828.717 419.225 L 800.109 419.877 C 795.401 419.957 789.904 420.652 785.3 419.722 C 776.062 420.111 766.818 419.491 757.754 417.637 C 754.096 399.532 756.153 374.459 762.495 357.126 C 776.703 353.908 792.934 354.966 807.455 354.961 z"/>
<path transform="translate(0,0)" fill="rgb(168,218,220)" d="M 828.102 484.821 L 872.979 484.296 C 871.266 490.84 871.541 498.715 871.031 505.5 L 866.841 566.938 L 853.736 566.946 L 806.682 566.979 L 807.077 485.041 L 828.102 484.821 z"/>
<path transform="translate(0,0)" fill="rgb(168,218,220)" d="M 703.337 484.827 L 740.728 484.5 L 740.288 569.028 L 714.351 569.271 L 678.507 569.113 L 678.75 484.96 L 703.337 484.827 z"/>
<path transform="translate(0,0)" fill="rgb(168,218,220)" d="M 598.555 484.83 L 612.028 484.138 L 611.536 569.351 L 560.981 569.294 L 549.21 569.244 L 549.175 484.792 L 598.555 484.83 z"/>
<path transform="translate(0,0)" fill="rgb(168,218,220)" d="M 433.112 484.86 L 482.431 484.841 C 483.501 496.704 485.063 557.894 482.598 569.558 L 441.597 569.303 L 412.574 569.234 C 410.395 566.092 410.294 557.524 409.397 553.403 L 397.732 505.068 C 396.198 498.919 395.52 492.425 393.436 486.455 L 433.112 484.86 z"/>
<path transform="translate(0,0)" fill="rgb(168,218,220)" d="M 257.041 484.436 L 303.962 484.782 C 311.999 484.823 320.657 484.221 328.608 485.284 L 347.11 571.731 L 324.627 571.937 L 234.056 571.918 L 234.837 486.311 C 241.934 484.57 249.751 484.754 257.041 484.436 z"/>
</svg>