<svg version="1.1" xmlns="http://www.w3.org/2000/svg" style="display: block;" viewBox="0 0 2048 2048" width="44" height="44">
<path transform="translate(0,0)" fill="rgb(36,41,43)" d="M 607.184 8.21945 C 619.822 8.76636 653.595 4.74435 662.733 11.2241 C 694.184 33.5259 703.951 54.0982 700.76 92.4369 L 701.601 93.1365 C 706.951 95.5685 715.174 96.2195 721 97.9808 C 738.706 103.334 755.995 109.528 772.685 117.534 C 804.679 132.883 787.614 133.255 813.229 111.237 C 841.449 86.9811 877.141 83.4251 907.458 106.642 C 932.865 126.098 960.878 155.487 965.037 188.697 L 965.19 190 C 968.3 214.307 955.561 230.906 938.002 246.393 C 974.327 241.904 1010.32 242.89 1046.85 242.891 L 1909.96 242.929 C 1921.98 242.941 1935.02 241.876 1946.77 244.585 C 1999.59 256.762 2039.33 296.748 2039.89 353.488 L 2039.92 1488.06 C 2039.91 1501.84 2040.94 1516.59 2039.35 1530.26 C 2032.07 1592.96 1981.81 1623.15 1923.39 1623.22 L 1285.37 1623.39 C 1290.49 1626.95 1291.42 1631.15 1294.68 1636.09 L 1400.48 1817.27 C 1405.44 1825.96 1403.86 1829.73 1415.42 1829.72 L 1542.06 1829.57 C 1563.31 1829.55 1584.04 1824.67 1595.9 1847.1 L 1596.5 1848.26 C 1602.41 1859.18 1600.39 1868.25 1600.39 1880.16 L 1600.83 1967.68 C 1602.56 2024.49 1583.97 2019.74 1529.5 2019.79 L 1439.41 2019.75 L 515.61 2019.92 C 489.587 2020.05 449.637 2024.83 446.784 1985.88 C 446.244 1978.5 446.831 1970.77 446.875 1963.37 L 447.038 1880.53 C 447.099 1846.18 452.974 1829.46 488.589 1829.49 L 515.782 1829.52 C 555.881 1829.57 596.938 1831.43 636.924 1829.19 C 653.186 1807.66 666.299 1782.95 679.437 1759.42 L 723.93 1681.26 C 735.12 1661.82 746.112 1641.88 759.131 1623.6 C 740.841 1622.11 721.492 1623.29 703.114 1623.29 L 156.416 1623.41 C 120.599 1623.59 86.7844 1627.17 55.7923 1605.32 C 31.4467 1588.15 16.3204 1561.4 10.4 1532.5 L 10.0845 1531.12 C 7.17825 1517.91 8.61321 1502.68 8.59298 1489.14 L 8.53167 435.995 C 8.54526 401.31 4.0769 364.529 12.3549 330.616 C 33.1131 245.573 88.5188 242.835 158.432 242.863 L 280.599 245.093 C 270.362 232.508 257.181 217.862 254.986 201.086 L 254.857 200 C 248.053 150.484 357.831 29.4172 426.422 130.585 C 455.606 111.917 488.089 102.923 518.498 87.4955 C 518.228 77.5458 517.713 66.4021 520.392 56.7793 L 520.92 55 C 532.38 15.4304 574.02 11.3619 607.184 8.21945 z"/>
<path transform="translate(0,0)" fill="rgb(209,156,66)" d="M 568.292 1888.05 L 1543.87 1888.17 L 1543.81 1960.37 C 1524.73 1962.53 1503.79 1960.85 1484.5 1960.89 L 505.345 1960.39 L 505.666 1888.39 C 525.68 1886.33 548.066 1888.05 568.292 1888.05 z"/>
<path transform="translate(0,0)" fill="rgb(209,156,66)" d="M 1011.42 1623.29 L 1205.39 1623.18 C 1234.77 1623.15 1228.02 1629.49 1244.83 1658.52 L 1319.79 1794.1 C 1327.21 1807.18 1334.19 1820.62 1342.78 1832.99 C 1302.37 1828.13 1261.64 1829.79 1220.98 1829.71 L 1032.16 1829.59 C 1019.51 1828.82 1006.32 1829.58 993.623 1829.58 L 802.817 1829.66 C 770.77 1829.68 736.25 1827.76 704.83 1834.7 L 816.73 1637.23 C 819.226 1632.63 819.882 1628.36 823.433 1624.21 L 1011.42 1623.29 z"/>
<path transform="translate(0,0)" fill="rgb(242,227,199)" d="M 869.922 1370.07 L 1981.69 1370.36 L 1982 1508.21 C 1981.9 1559.37 1950.35 1566.29 1910.02 1566.29 L 1176.5 1566.32 L 150.395 1566.44 C 138.064 1566.44 124.837 1567.29 112.643 1565.57 L 111 1565.33 C 89.3617 1562.6 74.9453 1546.57 70.538 1525.52 L 70.3329 1524.5 C 65.8223 1503.38 67.5898 1479.46 67.5471 1457.9 L 67.5278 1370.04 L 869.922 1370.07 z"/>
<path transform="translate(0,0)" fill="rgb(36,41,43)" d="M 1015.44 1400.3 C 1046.98 1395.15 1081.43 1415.72 1088.9 1447.35 L 1090.11 1452.66 C 1097.96 1490.37 1071.38 1525 1034.72 1531.93 C 936.114 1539.32 934.897 1410.79 1015.44 1400.3 z"/>
<path transform="translate(0,0)" fill="rgb(209,156,66)" d="M 593.577 66.4189 C 608.522 64.6134 628.162 65.3444 642.969 68.0634 C 645.455 87.2644 641.51 107.245 646.366 126.095 L 647.298 127.32 C 661.05 144.336 735.626 158.158 765.76 179.443 C 823.876 220.493 821.464 167.886 856.737 147.746 C 876.8 136.289 902.841 177.637 909.001 191.54 C 891.574 233.798 860.996 227.488 893.857 273.804 C 913.522 301.522 928.375 329.877 938.185 362.463 C 942.302 376.138 944.916 390.906 950.497 404.031 C 964.035 435.875 1010.46 417.078 1033.89 426.988 C 1038.83 445.553 1039.27 476.399 1033.82 495.001 L 991.418 494.963 C 951.999 494.995 948.594 495.177 937.638 535 C 929.823 563.408 919.468 588.084 904.83 613.638 L 889.412 639.743 C 864.927 681.881 920.58 689.466 909.262 722 C 903.849 737.559 889.123 752.774 874.17 759.5 C 848.303 771.134 831.77 728.918 809.142 721.756 C 794.101 716.995 773.057 732.968 761.352 740.368 C 736.797 755.895 712.701 765.973 684.805 773.971 C 656.895 781.973 641.419 779.661 643.84 813.5 C 645.108 831.211 649.338 851.614 645.019 869.068 C 632.835 874.04 620.712 873.239 607.79 873.346 L 580.773 873.266 C 562.664 873.115 556.757 873.089 559.474 852.704 C 565.667 806.238 576.932 784.221 524.205 770.935 C 501.556 765.228 479.504 757.513 459.089 746.011 C 444.242 737.646 429.367 724.265 412.662 720.135 C 384.611 713.201 365.997 749.965 343.61 763.008 C 329.738 756.229 317.376 744.501 307.698 732.637 C 294.009 715.857 294.8 708.076 309.618 693.615 C 355.078 649.25 336.443 659.092 308.026 612.1 C 291.381 584.576 278.685 509.146 259.412 499.194 L 258.3 498.637 C 249.075 493.695 236.035 494.709 225.896 494.753 L 194.236 494.707 C 190.815 494.671 185.099 495.337 182.117 493.838 C 180.178 479.748 180.802 464.926 180.9 450.736 C 181.081 424.699 180.065 421.773 204.74 422.877 C 219.299 423.529 238.071 425.245 252.15 421.529 L 260.5 418.942 C 277.184 411.617 281.646 390.929 286.415 375.023 L 295.462 347.625 C 302.132 329.506 309.935 310.251 321.504 294.653 C 350.804 255.149 367.924 249.84 323.223 206.646 C 313.316 197.074 309.66 192.76 317.064 179.539 C 324.359 166.51 342.771 148.653 359.419 150.057 C 372.06 151.123 402.631 184.006 418.513 194.182 C 442.968 190.822 470.48 170.075 493.381 160.085 C 505.848 154.646 565.754 136.549 569.678 123.095 L 569.946 121.989 C 574.281 104.957 569.323 86.1348 573.894 69.0563 C 580.378 67.2148 586.887 66.8885 593.577 66.4189 z"/>
<path transform="translate(0,0)" fill="rgb(36,41,43)" d="M 605.525 286.375 L 605.584 286.352 C 691.729 278.951 766.427 340.164 792.441 419.491 L 797.896 437.526 C 800.081 443.998 802.061 444.409 808.055 447.914 L 799.366 476.233 C 790.641 507.813 783.948 538.189 763.734 565.065 C 732.927 606.026 685.38 631.734 635.198 638.826 C 531.769 645.278 442.777 585.62 430.566 478.915 C 426.801 446.012 445.906 462.201 449.289 441.826 L 452.578 424.176 C 468.821 349.87 530.156 295.248 605.525 286.375 z"/>
<path transform="translate(0,0)" fill="rgb(242,227,199)" d="M 970.268 299.267 C 988.013 302.16 1008.29 300.095 1026.36 300.05 L 1926.48 300.304 C 1972.89 301.99 1979.56 329.031 1979.5 370.882 L 1979.41 1313.72 L 75.75 1313.75 C 71.0123 1313.97 69.8276 1313.82 68.2303 1313.37 L 67.6173 379.531 C 67.6128 367.685 66.9179 355.232 68.1749 343.472 C 73.2099 296.366 123.559 300.005 156.164 299.989 L 255.201 300.358 C 248.969 308.527 239.208 340.575 236.19 350.66 C 231.17 367.428 237.162 367.335 220.246 366.974 C 151.457 365.508 124.686 393.656 123.641 459.301 C 122.364 539.498 153.85 550.415 228.606 550.832 C 234.176 588.117 249.709 619.549 270.022 650.938 L 267.677 653.723 C 251.654 673.854 240.227 698.775 243.319 724.975 C 248.374 767.809 303.308 824.773 349.41 818.321 C 372.563 815.081 397.191 798.267 410.96 779.801 L 411.658 778.834 C 417.512 781.915 422.695 787.746 428.36 791.511 C 446.593 803.627 467.827 812.085 489.153 816.926 C 490.837 817.308 500.788 819.256 501.019 819.652 C 503.981 824.746 493.168 866.74 515.479 896.859 C 537.113 926.065 565.559 928.071 598.344 928.032 C 659.837 927.959 702.646 918.577 702.161 844.771 C 702.113 837.379 700.974 829.359 701.743 822.062 C 741.799 816.298 763.565 804.67 795.645 780.358 C 811.554 796.285 828.054 812.093 851.075 816.38 C 897.809 825.083 955.684 770.182 963.04 727.391 L 963.74 723.125 C 966.886 698.789 955.788 672.284 941.471 653.262 C 974.572 620.612 975.432 587.049 990.5 550.526 C 1007.76 550.512 1028.45 552.644 1044.96 547.025 C 1085.7 533.156 1090 487.578 1090.4 451.029 C 1091.15 382.665 1052.24 371.882 997.143 370.086 C 991.647 343.414 984.844 322.617 970.268 299.267 z"/>
<path transform="translate(0,0)" fill="rgb(36,41,43)" d="M 642.378 1006.56 L 644.123 1006.28 C 712.804 998.273 708.077 1057.59 676.39 1062.86 C 665.853 1064.61 653.842 1063.46 643.108 1063.48 L 311.5 1063.59 C 300.803 1063.75 285.319 1065.8 275.476 1061.51 C 251.779 1051.19 246.169 1016.56 274.662 1007.86 L 275.7 1007.57 C 286.072 1004.33 301.498 1006.49 312.566 1006.51 L 642.378 1006.56 z"/>
<path transform="translate(0,0)" fill="rgb(36,41,43)" d="M 293.122 1156.47 L 764.698 1158.01 C 780.609 1157.98 798.409 1156.13 814.13 1157.85 C 839.662 1160.65 859.039 1213.69 799.987 1215.55 L 358.226 1215.12 C 334.99 1215.14 310.844 1216.36 287.693 1214.91 C 249.748 1212.53 235.55 1158.85 293.122 1156.47 z"/>
<path transform="translate(0,0)" fill="rgb(36,41,43)" d="M 1720.69 323.164 C 1739.87 322.337 1751.59 333.728 1759.82 350.367 C 1759.52 358.464 1758.07 366.459 1757.85 374.562 L 1757.53 433.212 C 1757.3 440.035 1757.69 449.918 1754.38 455.858 C 1727.27 504.51 1685.29 471.403 1696.09 419.306 L 1566.93 548.457 C 1547.3 567.88 1528.37 563.887 1502.52 563.788 L 1444.24 563.489 C 1437.24 564.437 1421.08 583.426 1415.59 588.802 L 1270.31 735.924 C 1261.32 745.101 1246.94 763.549 1233.77 765.924 L 1232.5 766.127 C 1208.86 770.118 1186.7 748.522 1200.62 725.004 C 1208.36 711.927 1223.24 700.33 1233.86 689.401 L 1400.97 521.929 C 1418.1 505.859 1432.95 507.05 1455.57 507.025 L 1500.7 507.02 C 1510.86 507.02 1522.62 508.964 1530.64 501.717 C 1552.26 482.181 1571.8 460.098 1592.27 439.372 L 1661.79 372.257 C 1678.44 356.055 1696.92 328.892 1720.69 323.164 z"/>
<path transform="translate(0,0)" fill="rgb(36,41,43)" d="M 1061.09 910.297 L 1247.14 910.625 C 1299.79 910.34 1295.1 925.261 1294.26 964.839 L 1294.33 1209.88 C 1295.52 1237.81 1297.28 1269.47 1262.39 1274.86 L 1081.4 1274.75 C 1013.86 1274.79 1028.69 1241.47 1028.69 1192.25 L 1028.22 951.775 C 1028.19 946.983 1027.85 941.811 1029.39 937.209 L 1029.84 936 C 1034.7 922.136 1046.44 912.361 1061.09 910.297 z"/>
<path transform="translate(0,0)" fill="rgb(68,82,88)" d="M 1117.85 1110.91 C 1115.26 1132.05 1120.77 1154.48 1116.64 1175.58 C 1103.52 1179.3 1089.38 1186.61 1086.68 1170.85 L 1086.45 1169.5 C 1082.03 1143.87 1084 1116.47 1084.01 1090.5 L 1084.01 967.104 L 1242.96 966.745 L 1243.07 1087.5 L 1242.64 968.227 C 1241.12 967.634 1240.04 967.251 1238.38 967.27 L 1189.35 967.281 C 1182.9 967.306 1174.73 966.415 1168.6 968.146 C 1171.77 969.993 1176.92 970.597 1179.22 973.044 C 1177.65 981.862 1165.95 987.341 1172.33 997.473 L 1173.08 998.52 C 1173.08 1004.71 1169.75 1002.61 1172.85 1008.67 L 1173.5 1010 C 1179.06 1009.95 1184.06 1009.67 1189.42 1011.46 L 1191 1012 C 1203.99 1015.88 1201.53 1032.23 1201.48 1042.79 L 1201.28 1071.23 L 1201.31 1044.77 C 1201.25 1014.67 1196.68 1009.21 1165.5 1011.32 L 1146.9 1014.1 C 1117.87 1020.08 1117.8 1087.38 1117.85 1110.91 z"/>
<path transform="translate(0,0)" fill="rgb(36,41,43)" d="M 1537.79 731.878 L 1565.84 731.607 C 1619.46 731.221 1610.73 753.454 1609.91 794 L 1610.98 1236.44 C 1611.53 1265.15 1590.17 1274.86 1564.96 1274.59 L 1423.32 1274.62 L 1393.12 1274.53 C 1385.6 1274.48 1377.23 1275.19 1370.72 1270.87 L 1369.5 1270.03 C 1345.25 1253.88 1349.74 1234.58 1350.45 1209.92 L 1350.6 771.861 C 1350.55 755.958 1355.85 742.771 1371.33 735.219 L 1372.64 734.593 C 1386.67 727.314 1416.76 731.882 1432.69 731.872 L 1537.79 731.878 z"/>
<path transform="translate(0,0)" fill="rgb(36,41,43)" d="M 1811.97 563.686 L 1870.77 563.487 C 1879.84 563.466 1891.56 562.108 1900.34 564.356 C 1946.46 576.171 1921.08 627.434 1921.55 652.283 C 1921.85 667.77 1925.57 683.144 1925.82 698.696 L 1928.04 1225.16 C 1928.56 1273.85 1908.5 1274.88 1870.56 1274.73 L 1784.86 1274.65 L 1730.93 1274.85 C 1706.18 1275.01 1667.72 1280.28 1663.57 1242.74 C 1662.75 1235.3 1663.69 1227.02 1663.72 1219.5 L 1664.1 975.452 C 1664.27 965.175 1666.58 955.164 1666.73 945 L 1666.77 642.15 C 1666.18 569.369 1657.34 563.85 1737.48 563.734 L 1811.97 563.686 z"/>
</svg>