<svg version="1.1" xmlns="http://www.w3.org/2000/svg" style="display: block;" viewBox="0 0 2048 2048" width="512" height="512">
<defs>
	<linearGradient id="Gradient1" gradientUnits="userSpaceOnUse" x1="678.738" y1="396.403" x2="1392.87" y2="670.328">
		<stop class="stop0" offset="0" stop-opacity="1" stop-color="rgb(255,202,1)"/>
		<stop class="stop1" offset="1" stop-opacity="1" stop-color="rgb(255,181,32)"/>
	</linearGradient>
</defs>
<path transform="translate(0,0)" fill="rgb(0,0,0)" d="M 1023.76 1894.22 C 1027.74 1893.68 1032.02 1894.12 1035.77 1895.59 L 1037 1896.09 C 1052.32 1902.19 1066.86 1920.86 1060.52 1937.91 L 1060.1 1939 C 1054.46 1953.79 1043.8 1964.19 1027.38 1965.55 C 981.628 1963.91 978.684 1903.48 1023.76 1894.22 z"/>
<path transform="translate(0,0)" fill="rgb(0,0,0)" d="M 158.731 1747.22 C 274.454 1737.02 312.483 1885.35 229.426 1937.69 L 218.169 1944.26 C 207.545 1949.59 196.875 1952.51 185.254 1954.76 C 128.898 1962.01 87.5567 1927.2 73.51 1873.5 L 72.1177 1867.42 C 60.6002 1810.51 103.555 1757.08 158.731 1747.22 z"/>
<path transform="translate(0,0)" fill="rgb(180,216,237)" d="M 167.572 1824.14 C 201.704 1824.87 209.523 1869.83 176.227 1879.03 C 141.842 1879.85 131.799 1835.05 167.572 1824.14 z"/>
<path transform="translate(0,0)" fill="rgb(0,0,0)" d="M 1497.03 1738.42 C 1519.53 1725.91 1539.06 1720.53 1557.34 1742.4 C 1560.69 1746.95 1562.65 1753.38 1563.24 1758.99 L 1563.39 1760.5 C 1566.95 1792.65 1539.77 1803.29 1516.05 1818.26 C 1442.44 1864.7 1374.96 1897.7 1291 1924.29 C 1267.89 1931.61 1132.68 1968.64 1115.97 1959.57 L 1110.04 1956.36 C 1080.54 1938.65 1090.11 1890.23 1124.16 1885.23 L 1146.5 1881.51 C 1268.25 1863.16 1395.16 1804.6 1497.03 1738.42 z"/>
<path transform="translate(0,0)" fill="rgb(0,0,0)" d="M 470.69 1731.12 C 481.588 1730.42 492.429 1735.53 501.427 1741.23 C 599.137 1803.14 709.283 1852.74 823.266 1875.7 L 904.897 1888.4 C 915.812 1889.83 928.251 1889.11 938.736 1892.55 L 942.959 1893.85 C 972.729 1905.28 971.063 1953.85 940.242 1963.35 L 933.809 1964.98 C 910.705 1965.59 886.85 1962.13 864 1959 C 728.574 1940.4 591.585 1891.86 477.5 1815.99 C 455.443 1801.32 427.61 1784.7 440.348 1753.2 L 441.903 1749.46 C 445.197 1742.14 452.449 1736.58 459.914 1733.99 L 470.69 1731.12 z"/>
<path transform="translate(0,0)" fill="rgb(0,0,0)" d="M 1808.77 68.3352 C 1871.36 59.6688 1936.24 109.849 1945.28 171.994 C 1954.15 232.98 1916.68 300.215 1853.75 312.934 L 1832.24 316.487 C 1800.61 321.344 1761.59 307.718 1737.85 287.69 C 1657.32 219.754 1695.9 76.8057 1808.77 68.3352 z"/>
<path transform="translate(0,0)" fill="rgb(180,216,237)" d="M 1812.48 141.216 C 1881.69 138.456 1888.13 226.524 1827.42 239.705 C 1766.02 250.658 1744.75 153.69 1812.48 141.216 z"/>
<path transform="translate(0,0)" fill="rgb(255,197,1)" d="M 287.48 1596.91 C 272.821 1586.27 260.585 1569.91 248.392 1556.54 C 129.09 1425.71 60.6406 1227.73 51.0783 1053.26 L 50.9896 938.004 C 52.0342 918.211 55.1577 898.078 57.6308 878.411 C 109.921 462.585 435.272 140.893 849.431 76.8337 C 908.551 67.6895 948.301 64.9027 1008.18 64.9329 C 1250.98 65.0552 1492.11 138.871 1673.26 304.454 C 1870.85 485.059 1980.42 725.795 1981 992.787 C 1981.05 1015.92 1981.84 1039.49 1980.29 1062.58 C 1969.06 1229.85 1905.43 1394.4 1805.99 1529 L 1771.21 1573.75 C 1764.03 1582.63 1754.71 1595.47 1744.6 1601.08 C 1751.82 1631.2 1733.96 1654.52 1702.03 1651.57 L 1700.11 1651.41 C 1689.84 1650.45 1680.89 1646.51 1674.34 1638.34 L 1670.41 1632.71 C 1666.64 1640.72 1663.96 1646.16 1658.07 1653.23 L 1639.22 1675.5 C 1622.46 1694.88 1585.86 1749.12 1557.34 1742.4 C 1539.06 1720.53 1519.53 1725.91 1497.03 1738.42 C 1488.4 1734.09 1475.37 1735.17 1465.95 1734.69 L 1417.01 1731.19 C 1311.66 1718.53 1205.9 1705.41 1101.92 1683.85 L 1044.08 1670.68 C 1029.99 1666.98 1015.55 1663.12 1002.5 1656.54 L 1006.22 1650.7 C 986.217 1651.6 962.974 1649.37 943.458 1644.5 L 918.861 1638.27 C 819.508 1607.19 753.062 1521.75 707.182 1432.75 C 666.565 1448.99 623.134 1459.68 580.807 1470.53 C 480.663 1496.2 433.133 1506.81 373.64 1599.61 C 359.822 1621.17 348.816 1652.54 317.105 1648.79 L 315.561 1648.5 C 291.304 1645.32 280.785 1618.38 287.48 1596.91 z"/>
<path transform="translate(0,0)" fill="rgb(0,0,0)" d="M 287.48 1596.91 L 288.484 1595.67 C 291.455 1591.9 293.608 1586.82 295.874 1582.55 L 309.719 1557.65 C 380.492 1442.3 442.956 1424.99 560.402 1395.49 C 634.088 1376.99 789.989 1342.2 798.618 1253.61 C 793.202 1244.19 784.876 1236.45 777.001 1229.08 L 750.032 1203.73 C 703.515 1158.4 671.429 1105.71 653.995 1042.7 L 646.96 1015.5 C 644.671 1006.24 645.138 1003.16 637.419 997.239 C 573.557 948.24 550.196 882.246 546.464 802.969 C 545.746 787.72 544.596 770.683 548.293 755.767 C 556.059 724.43 590.387 730.238 589.623 686.372 C 523.861 711.572 494.273 691.021 513.543 618.997 C 551.215 478.198 630.542 384.859 751.006 310.221 C 780.601 291.884 811.418 274.321 844.5 263.084 L 880.742 253.277 C 893.013 249.787 908.349 250.051 921.122 249.814 C 919.159 189.188 876.337 196.388 876.889 160.062 C 877.395 126.71 910.46 119.702 937.467 129.784 L 973.481 145.254 C 1002.68 158.382 1032.72 171.888 1060.49 187.858 L 1060.18 186.23 C 1056.76 166.998 1055.81 137.137 1067.46 121.37 C 1106.58 68.3928 1162.04 151.446 1181.13 182.196 C 1227.18 256.363 1223.61 265.433 1300.22 305.655 C 1418.42 367.712 1481.78 471.714 1504.33 601.437 C 1509.09 628.797 1526.12 690.789 1478.5 693.023 C 1466.49 693.587 1448.66 683.509 1438.45 677.799 C 1459.9 735.487 1491.11 740.156 1483.78 812.979 C 1477.44 875.974 1456.31 933.136 1409.01 976.075 L 1386.96 994.284 C 1373.69 1004.51 1371.03 1006.2 1368.12 1022.55 L 1362.69 1050.98 C 1347.33 1118.93 1308.3 1182.51 1254.57 1226.78 L 1232.69 1243.36 C 1227.35 1247.02 1220.4 1250.67 1216.08 1255.45 C 1234.62 1322.68 1270.95 1339.63 1331.96 1359.77 L 1531.41 1411.66 C 1626.69 1439.88 1675.27 1486.32 1727.41 1572.11 L 1740.76 1594.79 C 1741.54 1596.13 1743.46 1600.33 1744.6 1601.08 C 1751.82 1631.2 1733.96 1654.52 1702.03 1651.57 L 1700.11 1651.41 C 1689.84 1650.45 1680.89 1646.51 1674.34 1638.34 L 1670.41 1632.71 C 1666.64 1640.72 1663.96 1646.16 1658.07 1653.23 L 1639.22 1675.5 C 1622.46 1694.88 1585.86 1749.12 1557.34 1742.4 C 1539.06 1720.53 1519.53 1725.91 1497.03 1738.42 C 1488.4 1734.09 1475.37 1735.17 1465.95 1734.69 L 1417.01 1731.19 C 1311.66 1718.53 1205.9 1705.41 1101.92 1683.85 L 1044.08 1670.68 C 1029.99 1666.98 1015.55 1663.12 1002.5 1656.54 L 1006.22 1650.7 C 986.217 1651.6 962.974 1649.37 943.458 1644.5 L 918.861 1638.27 C 819.508 1607.19 753.062 1521.75 707.182 1432.75 C 666.565 1448.99 623.134 1459.68 580.807 1470.53 C 480.663 1496.2 433.133 1506.81 373.64 1599.61 C 359.822 1621.17 348.816 1652.54 317.105 1648.79 L 315.561 1648.5 C 291.304 1645.32 280.785 1618.38 287.48 1596.91 z"/>
<path transform="translate(0,0)" fill="rgb(255,197,1)" d="M 867.9 1308.21 C 877.382 1313.85 885.879 1321.2 895.121 1327.25 C 976.933 1380.76 1076.79 1372.85 1152.68 1311.53 C 1163.89 1344.56 1197.84 1382.93 1226.56 1400.27 C 1203.56 1444.29 1172.53 1487.53 1134.56 1519.8 C 1083.7 1564.19 1009.8 1583.58 944.463 1565.39 C 863.603 1542.89 817.423 1471.41 778.728 1402.66 C 824.251 1385.68 839.763 1343.25 867.9 1308.21 z"/>
<path transform="translate(0,0)" fill="rgb(180,216,237)" d="M 1006.22 1650.7 C 1148.23 1643.89 1229.87 1546.05 1299.01 1431.92 C 1324.1 1440.68 1350.43 1446.44 1376.27 1452.57 L 1462.04 1473.17 C 1551.2 1494.44 1599.74 1512.64 1650.5 1595.84 C 1657.5 1607.31 1665.61 1620.17 1670.41 1632.71 C 1666.64 1640.72 1663.96 1646.16 1658.07 1653.23 L 1639.22 1675.5 C 1622.46 1694.88 1585.86 1749.12 1557.34 1742.4 C 1539.06 1720.53 1519.53 1725.91 1497.03 1738.42 C 1488.4 1734.09 1475.37 1735.17 1465.95 1734.69 L 1417.01 1731.19 C 1311.66 1718.53 1205.9 1705.41 1101.92 1683.85 L 1044.08 1670.68 C 1029.99 1666.98 1015.55 1663.12 1002.5 1656.54 L 1006.22 1650.7 z"/>
<path transform="translate(0,0)" fill="url(#Gradient1)" d="M 994.753 237.44 C 1021.8 254.28 1052.34 275.319 1086 272.717 C 1098.75 271.731 1126.26 263.653 1137.26 265.791 C 1140.83 266.486 1171.83 310.481 1177.2 316.82 C 1197.84 341.193 1224.71 352.899 1252.55 367.351 C 1340.67 413.091 1413.04 499.168 1423.48 600.238 C 1400.13 604.797 1371.67 617.742 1367 643.907 L 1366.74 645.5 C 1365.48 652.695 1365.43 660.014 1365.18 667.299 C 1333.74 620.79 1294.86 579.337 1256.06 538.969 L 1215.97 499.538 C 1165.73 453.276 1155.28 463.298 1096 488.954 L 1030.74 517.286 C 897.432 570.684 775.718 594.853 672.31 702.272 C 650.724 684.598 677.146 623.008 672.475 604.309 L 672.111 603 C 662.964 567.073 634.187 565.483 605.702 579.239 L 636.95 524.693 C 682.274 452.701 745.623 400.028 819.82 359.624 C 840.239 348.505 863.066 336.394 885.999 331.906 C 920.329 325.187 971.124 353.244 994.241 313.643 C 1002.44 299.604 998.786 253.748 994.753 237.44 z"/>
<path transform="translate(0,0)" fill="rgb(255,197,1)" d="M 1154.07 550.997 C 1182.39 575.158 1208.35 601.823 1233.97 628.793 C 1272.59 669.453 1300.83 701.461 1306.94 760.178 C 1308.5 775.233 1307.48 792.416 1313.31 806.556 C 1320.81 824.775 1345.84 840.316 1365.34 831.336 C 1385.99 821.828 1391.73 796.769 1399.25 777.569 L 1400.29 778.031 C 1424.31 795.999 1393.36 870.532 1382.71 890.323 C 1369.72 914.455 1361.53 919.547 1336.71 929.171 C 1301.92 942.666 1300.88 980.208 1294.64 1011.69 C 1280.29 1084.09 1215.36 1185.69 1142.63 1211.05 C 1129.5 1215.63 1126.91 1214.26 1122.65 1227.73 C 1116.63 1246.78 1102.19 1256.88 1084.94 1265.74 C 1026.93 1295.53 978.616 1291.2 923.619 1253.85 C 902.696 1239.71 884.758 1222.19 865.864 1205.6 C 799.477 1147.3 739.595 1090.85 722.5 1000.88 C 719.123 983.105 718.494 959.333 709.239 943.769 C 703.201 933.616 684.107 929.827 674.112 923.503 C 637.384 900.264 617.378 833.353 623.407 793.396 C 635.246 803.088 634.304 824.251 663.515 835.176 C 696.06 847.347 704.751 814.565 713.871 792.01 C 748.254 706.974 834.807 674.94 913.847 644.318 C 993.795 613.345 1076.47 587.702 1154.07 550.997 z"/>
<path transform="translate(0,0)" fill="rgb(0,0,0)" d="M 844.662 775.299 C 861.567 773.052 880.742 774.328 893.852 786.184 C 910.237 801.001 911.185 826.277 895.35 841.787 C 881.073 855.77 860.804 853.834 842.39 853.68 C 820.362 852.943 787.646 851.07 779.107 825.856 C 765.888 786.829 802.414 775.844 833.426 774.232 C 837.392 774.026 841.022 773.386 844.662 775.299 z"/>
<path transform="translate(0,0)" fill="rgb(0,0,0)" d="M 1132.13 776.416 C 1158.83 775.583 1204.16 769.712 1216.78 801.502 L 1217.31 802.925 C 1229.08 833.665 1203.53 851.585 1176.25 853.031 C 1147.96 853.736 1110.5 859.23 1092.29 831.5 C 1087.4 824.051 1085.24 814.497 1087.51 805.734 L 1087.86 804.5 C 1094.04 782.018 1110.61 778.254 1132.13 776.416 z"/>
<path transform="translate(0,0)" fill="rgb(0,0,0)" d="M 1013.15 1034.61 C 1036.02 1034.34 1060.65 1029.79 1079.05 1046.41 C 1096.01 1061.73 1093.59 1085.29 1078.08 1100.79 C 1061.74 1117.12 1033.02 1112.79 1011.73 1112.74 C 990.293 1112.68 966.858 1115.06 949.179 1100.37 C 933.055 1086.97 930.053 1062.65 944.85 1047.24 C 961.346 1030.05 991.404 1034.61 1013.15 1034.61 z"/>
</svg>