<svg xmlns="http://www.w3.org/2000/svg" version="1.1" xmlns:xlink="http://www.w3.org/1999/xlink" xmlns:svgjs="http://svgjs.dev/svgjs" viewBox="0 0 800 800"><defs><filter id="llleaves-blur-2" x="-100%" y="-100%" width="400%" height="400%"><feGaussianBlur in="SourceGraphic" stdDeviation="2"></feGaussianBlur></filter><filter id="llleaves-blur-3" x="-100%" y="-100%" width="400%" height="400%"><feGaussianBlur in="SourceGraphic" stdDeviation="4"></feGaussianBlur></filter><filter id="llleaves-blur-4" x="-100%" y="-100%" width="400%" height="400%"><feGaussianBlur in="SourceGraphic" stdDeviation="12"></feGaussianBlur></filter></defs><g fill="hsl(30, 100%, 40%)"><path d="M495 727H545C573 727 595 749 595 777H545C517 777 495 755 495 727Z " transform="matrix(0.19525051387315726,-0.5086449785668086,0.5086449785668086,0.19525051387315726,56.087446056889235,882.3831268862964)" opacity="0.84"></path><path d="M596 87H646C674 87 696 109 696 137H646C618 137 596 115 596 87Z " transform="matrix(0.0636828192136238,-0.5186549411858279,0.5186549411858279,0.0636828192136238,546.7715453751863,439.918616254119)" opacity="0.80"></path><path d="M482 83H532C560 83 582 105 582 133H532C504 133 482 111 482 83Z " transform="matrix(0.16692054165205353,-0.5137286030589017,0.5137286030589017,0.16692054165205353,387.71558271074616,363.276198328914)" opacity="0.83"></path><path d="M581 648H631C659 648 681 670 681 698H631C603 698 581 676 581 648Z " transform="matrix(0.12913109206948137,-0.5179165219989382,0.5179165219989382,0.12913109206948137,200.96046159887186,912.9001004185691)" opacity="0.82"></path><path d="M601 733H651C679 733 701 755 701 783H651C623 783 601 761 601 733Z " transform="matrix(0.09177996125632308,-0.520510025678204,0.520510025678204,0.09177996125632308,196.704645758055,1027.2828160842178)" opacity="0.81"></path><path d="M372 457H422C450 457 472 479 472 507H422C394 507 372 485 372 457Z " transform="matrix(0.24208184488253,-0.49634133653925466,0.49634133653925466,0.24208184488253,80.6049372476516,574.772594786186)" opacity="0.85"></path><path d="M183 718H233C261 718 283 740 283 768H233C205 768 183 746 183 718Z " transform="matrix(0.008971841976357675,-0.5139964825827793,0.5139964825827793,0.008971841976357675,-150.98982573949633,856.0951018533538)" opacity="0.79"></path><path d="M0 406H50C78 406 100 428 100 456H50C22 456 0 434 0 406Z " transform="matrix(-0.3745059531261344,-0.17463499396735332,0.17463499396735332,-0.3745059531261344,-6.542384743622563,601.1438154957316)" opacity="0.63"></path><path d="M210 466H260C288 466 310 488 310 516H260C232 516 210 494 210 466Z " transform="matrix(0.08241704071452848,-0.5203607156463895,0.5203607156463895,0.08241704071452848,-16.925541968154675,585.8270190772278)" opacity="0.81"></path><path d="M107 314H157C185 314 207 336 207 364H157C129 364 107 342 107 314Z " transform="matrix(-0.17217529034144868,-0.4485319660789877,0.4485319660789877,-0.17217529034144868,31.9791840828306,467.78694210015215)" opacity="0.74"></path><path d="M699 303H749C777 303 799 325 799 353H749C721 353 699 331 699 303Z " transform="matrix(0.008960062775292913,-0.513321652605738,0.513321652605738,0.008960062775292913,573.9194109266235,709.5390172114016)" opacity="0.79"></path><path d="M591 270H641C669 270 691 292 691 320H641C613 320 591 298 591 270Z " transform="matrix(0.11044433192793561,-0.5195997294094005,0.5195997294094005,0.11044433192793561,416.92326305842016,595.4823486326848)" opacity="0.82"></path><path d="M214 608H264C292 608 314 630 314 658H264C236 658 214 636 214 608Z " transform="matrix(0.08241704071452848,-0.5203607156463895,0.5203607156463895,0.08241704071452848,-87.14643175280008,718.2052421583503)" opacity="0.81"></path><path d="M703 504H753C781 504 803 526 803 554H753C725 554 703 532 703 504Z " transform="matrix(-0.017795390634157575,-0.5095933134681504,0.5095933134681504,-0.017795390634157575,496.825066322869,922.1375266869868)" opacity="0.78"></path><path d="M297 398H347C375 398 397 420 397 448H347C319 448 297 426 297 398Z " transform="matrix(0.20480343776091028,-0.5069062963364918,0.5069062963364918,0.20480343776091028,61.511843746628074,512.2646306558976)" opacity="0.84"></path><path d="M519 358H569C597 358 619 380 619 408H569C541 408 519 386 519 358Z " transform="matrix(0.17606758337117465,-0.5113373908326609,0.5113373908326609,0.17606758337117465,272.9753243728925,606.5170909526241)" opacity="0.83"></path><path d="M477 437H527C555 437 577 459 577 487H527C499 487 477 465 477 437Z " transform="matrix(0.2047612421997143,-0.5068018586577031,0.5068018586577031,0.2047612421997143,184.94836666089174,634.4848856163414)" opacity="0.84"></path><path d="M701 110H751C779 110 801 132 801 160H751C723 160 701 138 701 110Z " transform="matrix(-0.052620997586151776,-0.5006553489794154,0.5006553489794154,-0.052620997586151776,722.9298970749788,518.0960017576715)" opacity="0.77"></path><path d="M702 407H752C780 407 802 429 802 457H752C724 457 702 435 702 407Z " transform="matrix(-0.017795390634157575,-0.5095933134681504,0.5095933134681504,-0.017795390634157575,545.2378223386455,822.9017804820053)" opacity="0.78"></path><path d="M83 105H133C161 105 183 127 183 155H133C105 155 83 133 83 105Z " transform="matrix(-0.22687195739528154,-0.409287845472992,0.409287845472992,-0.22687195739528154,109.96655042208349,213.92863790929454)" opacity="0.72"></path><path d="M12 488H62C90 488 112 510 112 538H62C34 538 12 516 12 488Z " transform="matrix(-0.3745059531261344,-0.17463499396735332,0.17463499396735332,-0.3745059531261344,-4.368382811431928,715.9489235796829)" opacity="0.63"></path><path d="M89 725H139C167 725 189 747 189 775H139C111 775 89 753 89 725Z " transform="matrix(-0.21359687138048652,-0.4192074637143751,0.4192074637143751,-0.21359687138048652,-145.71563266389376,968.4674909916629)" opacity="0.72"></path><path d="M485 270H535C563 270 585 292 585 320H535C507 320 485 298 485 270Z " transform="matrix(0.19525051387315726,-0.5086449785668086,0.5086449785668086,0.19525051387315726,280.4907064006523,509.52616194066115)" opacity="0.84"></path><path d="M94 213H144C172 213 194 235 194 263H144C116 263 94 241 94 213Z " transform="matrix(-0.21359687138048652,-0.4192074637143751,0.4192074637143751,-0.21359687138048652,74.98657311476879,349.2019301634258)" opacity="0.72"></path><path d="M297 191H347C375 191 397 213 397 241H347C319 241 297 219 297 191Z " transform="matrix(0.20480343776091028,-0.5069062963364918,0.5069062963364918,0.20480343776091028,166.4414470882819,347.658942272406)" opacity="0.84"></path><path d="M396 225H446C474 225 496 247 496 275H446C418 275 396 253 396 225Z " transform="matrix(0.2419975813021774,-0.49616857059675246,0.49616857059675246,0.2419975813021774,214.02693609004078,410.7917871606073)" opacity="0.85"></path><path d="M3 650H53C81 650 103 672 103 700H53C25 700 3 678 3 650Z " transform="matrix(-0.3745059531261344,-0.17463499396735332,0.17463499396735332,-0.3745059531261344,-45.02980541227838,937.0471730404106)" opacity="0.63"></path><path d="M549 11H599C627 11 649 33 649 61H599C571 61 549 39 549 11Z " transform="matrix(0.13846231652964125,-0.5167484002223044,0.5167484002223044,0.13846231652964125,497.45812999074195,340.5476483380932)" opacity="0.82"></path><path d="M204 354H254C282 354 304 376 304 404H254C226 404 204 382 204 354Z " transform="matrix(0.08241704071452848,-0.5203607156463895,0.5203607156463895,0.08241704071452848,35.84936042852814,479.9355633433766)" opacity="0.81"></path><path d="M-5 30H45C73 30 95 52 95 80H45C17 80 -5 58 -5 30Z " transform="matrix(-0.38254955963579196,-0.13172237683440474,0.13172237683440474,-0.38254955963579196,54.96999945771837,81.96773273751677)" opacity="0.62"></path><path d="M603 178H653C681 178 703 200 703 228H653C625 228 603 206 603 178Z " transform="matrix(0.09177996125632308,-0.520510025678204,0.520510025678204,0.09177996125632308,487.4041500869456,524.2617146328337)" opacity="0.81"></path><path d="M686 17H736C764 17 786 39 786 67H736C708 67 686 45 686 17Z " transform="matrix(-0.01779944250069742,-0.509709343744654,0.509709343744654,-0.01779944250069742,727.6925972432379,417.89365358109467)" opacity="0.78"></path><path d="M-1 235H49C77 235 99 257 99 285H49C21 285 -1 263 -1 235Z " transform="matrix(-0.38314104859481385,-0.11713797388167799,0.11713797388167799,-0.38314104859481385,37.3180381719096,365.35643335485383)" opacity="0.61"></path><path d="M5 323H55C83 323 105 345 105 373H55C27 373 5 351 5 323Z " transform="matrix(-0.3745059531261344,-0.17463499396735332,0.17463499396735332,-0.3745059531261344,14.824849521298432,487.93299635609924)" opacity="0.63"></path><path d="M415 17H465C493 17 515 39 515 67H465C437 67 415 45 415 17Z " transform="matrix(0.24240585963552796,-0.4970056652320547,0.4970056652320547,0.24240585963552796,331.4070373297332,262.92658822821323)" opacity="0.85"></path><path d="M628 558H678C706 558 728 580 728 608H678C650 608 628 586 628 558Z " transform="matrix(0.08224775985894787,-0.5192919183880621,0.5192919183880621,0.08224775985894787,319.4888303953932,887.1294766693395)" opacity="0.81"></path><path d="M108 625H158C186 625 208 647 208 675H158C130 675 108 653 108 625Z " transform="matrix(-0.17217529034144868,-0.4485319660789877,0.4485319660789877,-0.17217529034144868,-106.34208207739312,832.7819893624217)" opacity="0.74"></path><path d="M284 527H334C362 527 384 549 384 577H334C306 577 284 555 284 527Z " transform="matrix(0.20480343776091028,-0.5069062963364918,0.5069062963364918,0.20480343776091028,-14.216623789887478,608.2552053323657)" opacity="0.84"></path></g><g fill="none" stroke-width="3" stroke="hsl(30, 100%, 40%)"><path d="M303 23H353C381 23 403 45 403 73H353C325 73 303 51 303 23Z " transform="matrix(0.2789243809543583,-0.48311119928264534,0.48311119928264534,0.2789243809543583,231.35035595754454,205.14988306096458)" opacity="0.86"></path><path d="M534 559H584C612 559 634 581 634 609H584C556 609 534 587 534 559Z " transform="matrix(0.15746437032304414,-0.5150427479890853,0.5150427479890853,0.15746437032304414,191.25584290571635,792.8257725569681)" opacity="0.83"></path><path d="M700 208H750C778 208 800 230 800 258H750C722 258 700 236 700 208Z " transform="matrix(-0.017795390634157575,-0.5095933134681504,0.5095933134681504,-0.017795390634157575,644.6113009375391,619.3413111188715)" opacity="0.78"></path><path d="M203 245H253C281 245 303 267 303 295H253C225 295 203 273 203 245Z " transform="matrix(0.08241704071452848,-0.5203607156463895,0.5203607156463895,0.08241704071452848,91.6510954746991,379.39866006561385)" opacity="0.81"></path><path d="M-4 734H46C74 734 96 756 96 784H46C18 784 -4 762 -4 734Z " transform="matrix(-0.38314104859481385,-0.11713797388167799,0.11713797388167799,-0.38314104859481385,-25.28323394083216,1055.1924026820209)" opacity="0.61"></path><path d="M376 117H426C454 117 476 139 476 167H426C398 167 376 145 376 117Z " transform="matrix(0.23252016172157142,-0.49864109596991146,0.49864109596991146,0.23252016172157142,256.13937547888315,321.4032439187191)" opacity="0.85"></path><path d="M-4 138H46C74 138 96 160 96 188H46C18 188 -4 166 -4 138Z " transform="matrix(-0.3823317735654282,-0.12422712372706739,0.12422712372706739,-0.3823317735654282,43.33824041649771,231.03452678260987)" opacity="0.62"></path><path d="M278 726H328C356 726 378 748 378 776H328C300 776 278 754 278 726Z " transform="matrix(0.1949656344414861,-0.5079028422746058,0.5079028422746058,0.1949656344414861,-117.38376264503637,771.1729408005147)" opacity="0.84"></path><path d="M125 526H175C203 526 225 548 225 576H175C147 576 125 554 125 526Z " transform="matrix(-0.1267713554501317,-0.47311713948426554,0.47311713948426554,-0.1267713554501317,-63.50255665205728,703.6465162627691)" opacity="0.75"></path><path d="M322 639H372C400 639 422 661 422 689H372C344 689 322 667 322 639Z " transform="matrix(0.23259906422826704,-0.4988103029415658,0.4988103029415658,0.23259906422826704,-45.73689304611503,695.1116540466932)" opacity="0.85"></path><path d="M92 17H142C170 17 192 39 192 67H142C114 67 92 45 92 17Z " transform="matrix(-0.1499991097700465,-0.4616497907302155,0.4616497907302155,-0.1499991097700465,143.91058237667755,113.85423289403255)" opacity="0.75"></path><path d="M170 143H220C248 143 270 165 270 193H220C192 193 170 171 170 143Z " transform="matrix(0.027029351120456985,-0.5157507433100383,0.5157507433100383,0.027029351120456985,127.40741787741304,276.9242325399716)" opacity="0.79"></path><path d="M191 27H241C269 27 291 49 291 77H241C213 77 191 55 191 27Z " transform="matrix(0.1479664974121543,-0.5160205002796949,0.5160205002796949,0.1479664974121543,178.50700810912667,168.66668270197445)" opacity="0.83"></path><path d="M700 722H750C778 722 800 744 800 772H750C722 772 700 750 700 722Z " transform="matrix(0.008960062775292913,-0.513321652605738,0.513321652605738,0.008960062775292913,359.828678422044,1125.2980725611596)" opacity="0.79"></path><path d="M7 567H57C85 567 107 589 107 617H57C29 617 7 595 7 567Z " transform="matrix(-0.3745059531261344,-0.17463499396735332,0.17463499396735332,-0.3745059531261344,-25.0370771004835,823.6617189068106)" opacity="0.63"></path><path d="M497 173H547C575 173 597 195 597 223H547C519 223 497 201 497 173Z " transform="matrix(0.19525051387315726,-0.5086449785668086,0.5086449785668086,0.19525051387315726,339.4862631551549,437.56920152915916)" opacity="0.84"></path><path d="M376 566H426C454 566 476 588 476 616H426C398 616 376 594 376 566Z " transform="matrix(0.24208184488253,-0.49634133653925466,0.49634133653925466,0.24208184488253,29.535404185342657,659.3710390401473)" opacity="0.85"></path><path d="M701 620H751C779 620 801 642 801 670H751C723 670 701 648 701 620Z " transform="matrix(-0.017795390634157575,-0.5095933134681504,0.5095933134681504,-0.017795390634157575,435.67665117929533,1039.1826053736127)" opacity="0.78"></path><path d="M387 725H437C465 725 487 747 487 775H437C409 775 387 753 387 725Z " transform="matrix(0.2419975813021774,-0.49616857059675246,0.49616857059675246,0.2419975813021774,-40.87937097661586,785.3274793741477)" opacity="0.85"></path><path d="M456 524H506C534 524 556 546 556 574H506C478 574 456 552 456 524Z " transform="matrix(0.21419189910234576,-0.5046044922405443,0.5046044922405443,0.21419189910234576,120.59103281415429,686.7385204665276)" opacity="0.84"></path><path d="M454 636H504C532 636 554 658 554 686H504C476 686 454 664 454 636Z " transform="matrix(0.21419189910234576,-0.5046044922405443,0.5046044922405443,0.21419189910234576,62.503713481418,773.7398187825837)" opacity="0.84"></path><path d="M587 463H637C665 463 687 485 687 513H637C609 513 587 491 587 463Z " transform="matrix(0.11044433192793561,-0.5195997294094005,0.5195997294094005,0.11044433192793561,313.0822926101176,765.0881936529555)" opacity="0.82"></path><path d="M403 346H453C481 346 503 368 503 396H453C425 396 403 374 403 346Z " transform="matrix(0.24176322652696514,-0.49568807210084226,0.49568807210084226,0.24176322652696514,159.58098363387234,505.85253962017754)" opacity="0.85"></path><path d="M615 368H665C693 368 715 390 715 418H665C637 418 615 396 615 368Z " transform="matrix(0.09177996125632308,-0.520510025678204,0.520510025678204,0.09177996125632308,399.40588567301097,703.0696423022707)" opacity="0.81"></path><path d="M256 109H306C334 109 356 131 356 159H306C278 159 256 137 256 109Z " transform="matrix(0.19518683103204737,-0.5084790790938246,0.5084790790938246,0.19518683103204737,178.136633105621,263.43956284441595)" opacity="0.84"></path><path d="M305 293H355C383 293 405 315 405 343H355C327 343 305 321 305 293Z " transform="matrix(0.2232234401357173,-0.501368055342227,0.501368055342227,0.2232234401357173,116.32063715299219,425.0006056833325)" opacity="0.84"></path><path d="M108 419H158C186 419 208 441 208 469H158C130 469 108 447 108 419Z " transform="matrix(-0.17217529034144868,-0.4485319660789877,0.4485319660789877,-0.17217529034144868,-13.944497065121624,591.3138795520833)" opacity="0.74"></path></g></svg>