<svg version="1.1" xmlns="http://www.w3.org/2000/svg" style="display: block;" viewBox="0 0 2048 2048" width="512" height="512">
<path transform="translate(0,0)" fill="rgb(0,143,222)" d="M 1008.55 34.5506 L 1079.92 35.1332 C 1609.5 65.3406 2013.13 499.077 2014.52 1028.31 L 2013.39 1091.01 C 2006.99 1185.94 1982.85 1288.8 1949.49 1377.95 L 1921.17 1444.2 C 1767.52 1780.51 1412.3 2013.52 1041.24 2014.04 L 1039.91 2014.1 C 550.277 2026.85 122.293 1660.04 45.7006 1179.92 C 23.5715 1041.2 31.2551 898.641 68.0363 763 C 182.771 339.885 568.541 40.0971 1008.55 34.5506 z"/>
<path transform="translate(0,0)" fill="rgb(249,250,250)" d="M 992.1 108.28 L 1040.7 108.123 C 1492.12 114.309 1874.56 455.167 1932.45 904.5 C 1995.62 1394.81 1660.41 1853.95 1167.15 1928.82 C 1129.73 1934.5 1092.8 1939.47 1054.83 1938.8 L 1050.25 1939.72 C 570.371 1953.03 168.44 1600.02 114.572 1127.77 C 111.733 1102.89 108.666 1077.7 108.012 1052.65 C 99.5696 729.345 261.366 415.724 539.148 245.265 C 672.976 163.143 835.328 112.032 992.1 108.28 z"/>
<path transform="translate(0,0)" fill="rgb(0,143,222)" d="M 488.69 1079.41 L 580.466 1080.62 C 591.999 1080.54 606.467 1078.41 617.558 1080.64 C 678.936 1093.01 686.684 1178.94 650.872 1219.48 C 636.03 1236.28 620.828 1239.21 599.506 1240.7 L 529.014 1241.02 C 510.665 1241.01 489.992 1242.47 472.125 1238.03 C 391.029 1217.88 394.243 1089.12 488.69 1079.41 z"/>
<path transform="translate(0,0)" fill="rgb(0,143,222)" d="M 484.745 814.395 C 504.814 812.71 525.905 813.948 546.077 813.945 C 605.898 813.934 670.921 806.745 671.004 892.701 C 671.051 941.14 653.793 969.216 604.152 975.779 C 582.809 978.042 560.876 977.093 539.431 977.09 C 483.711 977.084 424.587 976.996 415.837 905.446 C 410.21 859.433 438.275 819.572 484.745 814.395 z"/>
<path transform="translate(0,0)" fill="rgb(0,143,222)" d="M 484.919 547.381 L 564.451 547.406 C 616.159 547.444 669.265 546.55 671.001 615 C 672.362 668.671 659.795 708.359 599.75 710.18 L 524 709.857 C 510.426 709.823 495.455 710.996 482.117 708.784 C 387.642 693.115 394.003 557.876 484.919 547.381 z"/>
<path transform="translate(0,0)" fill="rgb(0,143,222)" d="M 480.81 1341.35 C 502.171 1339.8 524.264 1341.01 545.737 1341.02 C 621.607 1341.02 676.417 1336.49 671.348 1430.37 C 669.105 1471.89 650.192 1498.68 607.247 1503.84 L 523.997 1503.93 C 509.652 1503.89 492.552 1505.59 478.5 1503.14 C 391.309 1487.94 396.009 1354.95 480.81 1341.35 z"/>
<path transform="translate(0,0)" fill="rgb(0,143,222)" d="M 904.475 1080.87 L 1543.92 1080.9 C 1598.92 1080.98 1646.94 1116.53 1631.98 1176.5 C 1617.78 1233.38 1582.52 1239 1534.67 1239.02 L 1471.5 1238.99 L 871.03 1238.97 C 847.547 1238.96 822.687 1240.62 799.368 1238.37 C 734.95 1232.15 709.72 1111.04 794.135 1083.35 C 808.114 1078.77 826.303 1080.87 840.979 1080.86 L 904.475 1080.87 z"/>
<path transform="translate(0,0)" fill="rgb(0,143,222)" d="M 1342.5 815.982 L 1534.73 815.99 C 1546.29 816.003 1558.23 815.298 1569.62 817.573 C 1655.46 834.719 1655.4 958.547 1569.33 973.539 C 1550.94 976.742 1530.15 975.039 1511.44 975.048 L 1035.5 975.004 L 836.289 975.017 C 821.904 975.006 808.003 975.924 794 972.079 C 739.989 957.245 723.008 876.562 761.506 837.994 C 788.136 811.315 819.576 816.001 853.874 815.978 L 1342.5 815.982 z"/>
<path transform="translate(0,0)" fill="rgb(0,143,222)" d="M 1525.1 1344.09 C 1543.67 1343.78 1563.42 1341.46 1580.97 1348.61 C 1667.55 1383.91 1638.34 1499.58 1566.34 1503.37 L 850.512 1503.77 L 813.809 1503.56 C 718.879 1501.28 718.815 1356.8 802.185 1344.59 C 809.744 1343.49 817.909 1344.08 825.547 1344.07 L 1525.1 1344.09 z"/>
<path transform="translate(0,0)" fill="rgb(0,143,222)" d="M 1272.83 547.537 L 1536.79 547.506 C 1546.82 547.546 1558.19 546.657 1568 548.515 C 1660.88 566.094 1649.17 691.753 1575.72 706.141 C 1560.29 709.163 1541.96 707.423 1526.23 707.419 L 1101.56 707.322 L 809.178 706.577 C 722.056 700.987 716.572 562.261 805.661 548.461 C 820.872 546.104 837.965 547.567 853.426 547.56 L 1272.83 547.537 z"/>
</svg>