<svg version="1.1" xmlns="http://www.w3.org/2000/svg" style="display: block;" viewBox="0 0 2048 2048" width="512" height="512">
<path transform="translate(0,0)" fill="rgb(25,76,111)" d="M 319.139 421.049 L 318.299 420.788 C 304.857 416.383 307.468 404.642 307.548 393.16 L 307.604 271.304 C 307.566 250.238 306.895 229.064 309.5 208.111 C 320.124 122.666 400.875 59.1716 484.674 55.4282 L 1744.62 54.9991 C 1767.26 54.997 1790.44 53.9196 1812.99 55.1827 C 1903.61 60.2574 1978.64 131.007 1985.25 222.829 C 1986.19 235.871 1985.64 249.356 1985.66 262.442 L 1985.64 444.242 C 1985.58 455.624 1988.09 473.362 1972.5 474.114 L 1667.72 474.059 L 1668.35 1780.21 C 1668.36 1799.58 1669.32 1819.4 1666.64 1838.62 C 1655.82 1916.28 1583.18 1980.89 1504.97 1983.74 L 358.904 1983.95 C 294.253 1983.91 228.326 1988.96 170.261 1954.29 C 119.145 1923.76 81.5826 1871.49 67.3331 1813.84 C 63.03 1796.43 50.9477 1758.14 79.7523 1757.44 L 319.267 1758.03 L 1174.68 1757.51 L 1207.67 1758.02 C 1210.84 1764.16 1210.78 1775.89 1212.36 1783.04 C 1226.54 1847.13 1283.17 1926.1 1348.14 1947.97 L 1350.47 1948.76 C 1363.38 1953.81 1380.98 1952.35 1394.87 1952.37 L 1486.3 1952.24 C 1551.13 1951.61 1616.22 1913.07 1633.19 1847.4 C 1637.47 1830.85 1636.47 1813.47 1636.46 1796.53 L 1636.23 276.049 C 1636.33 206.113 1636.81 148.915 1695.94 98.0142 C 1700.51 94.0828 1705.11 89.6867 1710.71 87.3611 L 1188.31 87.193 L 492.266 87.0666 C 414.403 87.2337 340.757 146.845 338.532 226.956 L 338.244 355.349 C 338.228 374.491 340.218 396.006 336.591 414.715 C 331.811 417.128 327.746 418.883 322.5 420.13 L 319.139 421.049 z"/>
<path transform="translate(0,0)" fill="rgb(174,217,224)" d="M 1799.56 88.4153 C 1803.23 87.6458 1808.24 88.0757 1812.02 88.0729 C 1877.93 88.0232 1933.46 135.354 1950.36 197.752 C 1954.97 214.766 1954.6 232.486 1954.65 249.937 L 1954.88 445.01 L 1825.84 444.529 L 1668.15 443.948 L 1668.1 234.791 C 1668.13 221.391 1667.83 207.645 1670.83 194.5 C 1684.59 134.271 1739.37 93.1165 1799.56 88.4153 z"/>
<path transform="translate(0,0)" fill="rgb(174,217,224)" d="M 92.2631 1787.83 L 1181.64 1789.02 L 1187.84 1812.28 C 1205.47 1865.63 1249.13 1927.43 1301.13 1953.5 L 1302.5 1954.95 C 1282.36 1953.31 1262.04 1954.36 1241.86 1953.82 L 343.651 1952.44 C 314.296 1952.43 283.09 1954.52 254.016 1950.67 C 167.03 1939.14 109.526 1871.83 92.2631 1787.83 z"/>
<path transform="translate(0,0)" fill="rgb(184,242,230)" d="M 318.936 421.049 L 322.5 420.13 C 327.746 418.883 331.811 417.128 336.591 414.715 C 340.218 396.006 338.228 374.491 338.244 355.349 L 338.532 226.956 C 340.757 146.845 414.403 87.2337 492.266 87.0666 L 1188.31 87.4953 L 1710.71 87.3611 C 1705.11 89.6867 1700.51 94.0828 1695.94 98.0142 C 1636.81 148.915 1636.33 206.113 1636.23 276.049 L 1636.46 1796.53 C 1636.47 1813.47 1637.47 1830.85 1633.19 1847.4 C 1616.22 1913.07 1551.13 1951.61 1486.3 1952.24 L 1394.87 1952.37 C 1380.98 1952.35 1363.38 1953.81 1350.47 1948.76 L 1348.14 1947.97 C 1283.17 1926.1 1226.54 1847.13 1212.36 1783.04 C 1210.78 1775.89 1210.84 1764.16 1207.67 1758.02 L 1174.68 1757.98 L 319.267 1758.06 C 316.623 1746.76 317.931 1732.73 318.037 1721.03 L 318.189 1672.98 C 318.223 1668.18 319.912 1660.4 318.117 1656.16 C 302.307 1651.87 307.8 1632.22 307.781 1619.5 L 307.962 1370.15 C 308.487 1356.45 308.891 1354.26 322.225 1350.95 C 318.175 1318.99 318.191 1232.65 321.619 1200.8 C 302.312 1197.62 282.102 1190.29 263.533 1182.41 C 31.9717 1084.22 -9.80627 766.297 183.533 609.614 C 232.131 570.231 269.452 560.307 323.837 538.848 L 322.087 533 C 317.097 519.753 318.37 503.576 318.329 489.585 L 318.468 441.578 C 318.563 434.982 320.135 427.448 318.936 421.049 z"/>
<path transform="translate(0,0)" fill="rgb(25,76,111)" d="M 322.225 1350.95 C 346.591 1355.66 338.746 1367.43 338.536 1388.37 L 338.236 1621.15 C 338.199 1643.05 343.324 1653.56 318.067 1656.16 C 302.307 1651.87 307.8 1632.22 307.781 1619.5 L 307.962 1370.15 C 308.487 1356.45 308.891 1354.26 322.225 1350.95 z"/>
<path transform="translate(0,0)" fill="rgb(174,217,224)" d="M 662.948 1604.88 C 639.114 1611.71 611.305 1611.19 586.451 1611.28 L 517.837 1611.43 C 492.402 1611.45 465.152 1613.36 439.943 1610.24 L 439.051 1568.01 L 626.355 1568.88 C 637.882 1569.29 653.005 1568.93 663.798 1573.13 L 662.948 1604.88 z"/>
<path transform="translate(0,0)" fill="rgb(25,76,111)" d="M 488.835 599.067 C 503.054 598.175 515.694 601.553 529.142 605.711 C 653.642 644.206 719.644 739.722 725.59 869.213 C 726.262 883.854 730.578 902.775 714.4 910.226 L 707.5 910.013 C 692.87 908.68 693.902 898.176 694 887.284 L 694.139 861.087 C 694.18 745.963 617.495 663.462 511.912 632.492 C 500.873 629.255 473.736 628.075 478.268 610.669 C 479.855 604.575 483.62 602.067 488.835 599.067 z"/>
<path transform="translate(0,0)" fill="rgb(25,76,111)" d="M 276.865 901.819 C 292.541 913.111 350.695 981.639 361.966 996.56 C 405.9 945.14 454.784 897.479 502.076 849.197 C 526.666 824.092 549.789 795.801 576.672 773.24 C 596.75 756.39 618.7 767.958 600.745 788.753 L 399.709 999.874 C 362.013 1039.74 368.666 1048.44 325.89 1001.08 L 249.333 909.499 C 258.715 908.069 267.994 905.167 276.865 901.819 z"/>
<path transform="translate(0,0)" fill="rgb(25,76,111)" d="M 663.123 1573.34 L 1108.46 1573.91 L 1469.59 1573.99 C 1475.58 1598.51 1477.09 1605.49 1455.19 1605.38 L 1191.55 1605.09 L 663.157 1604.95 L 663.123 1573.34 z"/>
<path transform="translate(0,0)" fill="rgb(174,217,224)" d="M 1073.53 1444.06 C 1058.24 1446.92 1041.44 1445.73 1025.95 1445.76 L 898.5 1448.69 L 438.065 1448.66 L 438.978 1404.85 L 1068.96 1403.81 L 1073.53 1444.06 z"/>
<path transform="translate(0,0)" fill="rgb(25,76,111)" d="M 1136.64 348.815 L 1439.91 348.662 C 1448.16 348.65 1458.48 347.353 1466.5 348.453 C 1474.61 349.564 1474.51 373.699 1467 377.252 C 1459.6 380.752 1444.06 378.868 1435.68 378.879 L 1129.84 378.847 L 570.046 378.817 C 545.428 378.772 519.795 380.18 495.348 377.526 C 493.332 368.154 492.933 359.315 494.357 349.848 C 515.129 346.857 538.548 348.851 559.58 348.835 L 1136.64 348.815 z"/>
<path transform="translate(0,0)" fill="rgb(25,76,111)" d="M 323.837 538.848 C 336.863 540.058 337.201 557.001 336.982 567.5 C 331.746 573.92 322.55 575.292 314.886 577.235 L 293.067 583.238 C 185.372 621.879 104.662 729.585 94.4122 843.274 C 91.5514 875.005 94.0573 907.461 98.8418 938.816 C 152.706 1183.27 444.619 1255.06 610.476 1074.96 C 616.688 1068.21 633.204 1044.1 637.081 1041.47 C 642.804 1037.57 658.947 1047.24 662.969 1053 C 662.782 1059.64 658.485 1065.53 654.718 1070.78 C 587.126 1164.91 482.313 1209.85 369.078 1205.91 L 322.29 1200.8 C 302.312 1197.62 282.102 1190.29 263.533 1182.41 C 31.9717 1084.22 -9.80627 766.297 183.533 609.614 C 232.131 570.231 269.452 560.307 323.837 538.848 z"/>
<path transform="translate(0,0)" fill="rgb(250,243,221)" d="M 1188.31 87.7977 L 1710.71 87.3611 C 1705.11 89.6867 1700.51 94.0828 1695.94 98.0142 C 1636.81 148.915 1636.33 206.113 1636.23 276.049 L 1636.46 1796.53 C 1636.47 1813.47 1637.47 1830.85 1633.19 1847.4 C 1616.22 1913.07 1551.13 1951.61 1486.3 1952.24 L 1394.87 1952.37 C 1380.98 1952.35 1363.38 1953.81 1350.47 1948.76 L 1348.14 1947.97 C 1283.17 1926.1 1226.54 1847.13 1212.36 1783.04 C 1210.78 1775.89 1210.84 1764.16 1207.67 1758.02 L 1174.68 1757.98 C 1170.15 1744.33 1161.98 1732.33 1155.21 1720.46 L 1109.86 1625.51 C 1107.41 1619.59 1106.99 1612.92 1104.13 1607.28 L 1191.55 1605.15 L 1455.19 1605.38 C 1477.09 1605.49 1475.58 1598.51 1469.59 1573.99 L 1108.46 1573.91 L 1100.27 1572.62 C 1086.96 1531.43 1080.68 1486.63 1073.53 1444.06 L 1068.96 1403.31 L 1059.87 1288.55 L 975.683 1288.88 C 958.154 1288.87 939.399 1290.25 922.14 1287.05 C 920.373 1267.99 917.057 1257.81 935.937 1257.8 L 1067.78 1257.83 C 1064.51 1256.52 1061.09 1256.72 1058.71 1256.53 L 1058.37 1049 C 1041.16 1049.19 929.832 1051.81 922.084 1045.71 C 914.456 1039.71 916.817 1021.01 927.875 1019.63 C 942.422 1017.81 958.708 1019.17 973.499 1019.17 L 1066.31 1019.11 L 1076.13 813.812 L 1255.78 813.404 L 938.425 812.945 C 904.08 810.951 920.098 783.584 926.466 782.757 C 942.244 780.71 960.311 782.304 976.342 782.289 L 1081.66 782.263 C 1083.72 773.965 1084.06 764.83 1084.82 756.334 L 1118.49 478.602 C 1123.24 445.597 1129.6 412.086 1129.83 378.707 L 1435.68 378.879 C 1444.06 378.868 1459.6 380.752 1467 377.252 C 1474.51 373.699 1474.61 349.564 1466.5 348.453 C 1458.48 347.353 1448.16 348.65 1439.91 348.662 L 1136.64 348.815 C 1139.13 341.427 1139.64 332.517 1141.05 324.5 L 1178.43 106.597 C 1179.34 100.604 1179.19 94.5106 1179.9 88.5 L 1188.31 87.7977 z"/>
<path transform="translate(0,0)" fill="rgb(25,76,111)" d="M 1066.31 1019.11 C 1102.11 1019.22 1463.44 1017.75 1467.5 1019.52 C 1474.93 1022.77 1473.62 1045.31 1467.47 1048.51 C 1463.13 1050.77 1097.85 1049.13 1058.37 1049.21 C 1041.16 1049.19 929.832 1051.81 922.084 1045.71 C 914.456 1039.71 916.817 1021.01 927.875 1019.63 C 942.422 1017.81 958.708 1019.17 973.499 1019.17 L 1066.31 1019.11 z"/>
<path transform="translate(0,0)" fill="rgb(25,76,111)" d="M 1059.87 1288.93 L 975.683 1288.88 C 958.154 1288.87 939.399 1290.25 922.14 1287.05 C 920.373 1267.99 917.057 1257.81 935.937 1257.8 L 1067.78 1257.83 L 1468.04 1258.8 C 1474.64 1275.75 1476.13 1289 1455.84 1289 L 1059.87 1288.93 z"/>
<path transform="translate(0,0)" fill="rgb(25,76,111)" d="M 1081.66 782.263 L 1420.24 782.26 C 1433.99 782.262 1448.28 781.504 1461.97 782.416 C 1476.25 783.367 1477.88 804.21 1468.79 811.898 C 1464.85 815.227 1278.13 813.425 1255.78 813.413 L 938.425 812.945 C 904.08 810.951 920.098 783.584 926.466 782.757 C 942.244 780.71 960.311 782.304 976.342 782.289 L 1081.66 782.263 z"/>
</svg>