<svg version="1.1" xmlns="http://www.w3.org/2000/svg" style="display: block;" viewBox="0 0 2048 2048" width="512" height="512">
<path transform="translate(0,0)" fill="rgb(113,223,152)" d="M 1002.96 16.6401 C 1337.79 15.3077 1644.97 162.34 1842.33 437.676 C 1978.63 627.829 2043.98 856.111 2028.87 1089.05 C 1997.54 1571.91 1627.87 1959.69 1146 2022.28 L 1101.49 2027.64 C 1081.95 2029.08 1062.33 2028.94 1042.75 2029 L 1037.93 2029 C 1011.44 2029.05 984.42 2029.87 958 2028.06 C 562.379 2000.87 228.205 1751.15 84.2298 1381.71 C 37.9892 1263.05 16.6299 1143.09 16.484 1015.68 L 17.0018 963.951 C 28.5756 764.088 106.798 562.883 229.718 405.375 C 371.24 224.031 560.075 105.733 781.738 47.9807 C 853.276 29.3421 928.901 16.679 1002.96 16.6401 z"/>
<path transform="translate(0,0)" fill="rgb(38,40,51)" d="M 969.59 364.254 C 989.995 362.857 1083.91 361.231 1093.97 368.235 C 1110.8 379.953 1115.93 395.829 1122.32 414.736 L 1165.78 546.27 C 1169.94 555.859 1182.43 556.651 1191.75 559.524 C 1213.37 566.184 1233.95 573.968 1253.17 586.082 C 1288.76 563.803 1327.8 546.253 1365.6 528.032 C 1440.74 491.802 1430.86 495.84 1486.64 549.778 C 1503.31 565.891 1538.05 590.693 1543.07 614.459 L 1543.36 615.971 C 1547.98 638.863 1515.04 690.018 1504.47 709.92 L 1460.08 791.563 C 1469.21 803.372 1475.96 814.958 1481.5 828.876 L 1494.37 866.095 C 1498.21 875.894 1507.88 875.548 1517 878.976 L 1580.18 902.824 C 1608.07 912.636 1667.47 924.636 1678.41 956.305 C 1681.32 964.745 1679.88 976.774 1679.9 985.783 L 1679.91 1041 C 1679.9 1069.84 1688.03 1090.73 1658.12 1106.5 C 1628.79 1121.97 1530.49 1156.72 1499.05 1164.08 C 1496.93 1166.26 1496.13 1169.68 1495.12 1172.54 L 1488 1193.3 C 1480.74 1213.19 1472.09 1231.93 1461.26 1250.11 C 1472.47 1268.58 1481.3 1288.74 1491.64 1307.75 L 1520.58 1360.76 C 1548.92 1413.45 1558.55 1424.61 1514.52 1465.61 L 1488.24 1491.15 C 1472.51 1507.1 1446.82 1546.43 1420.69 1538.68 C 1399.1 1532.27 1377.93 1519.97 1357.82 1509.96 L 1250.89 1454.1 C 1235.47 1462.63 1220.53 1471.91 1204.14 1478.54 C 1159.24 1496.69 1172.05 1475.22 1155.71 1524.54 L 1128.26 1611.45 C 1122.67 1628.39 1113.97 1667.01 1095.45 1673.86 L 1094.09 1674.32 C 1087.76 1676.51 1080.56 1676.36 1073.91 1676.7 L 978.341 1677 C 933.934 1677.01 933.728 1654.88 921.656 1619.26 L 883.834 1502.41 C 880.18 1490.38 881.616 1490.25 869.443 1486.43 L 841.304 1476.73 C 825.184 1470.26 810.144 1462.32 795.342 1453.27 L 639.61 1535.17 C 604.927 1549.68 582.514 1513.38 561.237 1492.36 C 505.708 1437.5 483.383 1438.31 526.738 1360.63 L 568.563 1287.51 C 597.971 1236.12 589.041 1260.62 567.144 1205.93 L 555.974 1175 C 552.82 1165.97 553.783 1166.23 544.607 1163.24 L 428.887 1122.81 C 384.235 1105.91 369.252 1103.99 369.033 1056.55 L 368.955 1021.37 C 368.438 929.357 363.604 939.2 458.038 905.676 L 550.158 871.749 C 560.77 867.641 558.239 853.771 562.933 841 C 569.329 823.599 579.714 808.352 589.393 792.683 L 538.75 699.984 C 509.444 644.519 483.945 624.848 534.321 576.014 L 568.208 543.364 C 620.396 491.394 609.525 491.674 680.362 526.805 C 719.234 546.084 759.508 563.013 795.668 587.26 C 814.407 573.982 837.241 565.453 858.253 556.297 L 873.663 549.635 C 887.46 543.71 911.259 459.407 917.508 440.011 C 927.76 408.19 930.495 371.242 969.59 364.254 z"/>
<path transform="translate(0,0)" fill="rgb(255,255,255)" d="M 1014.7 775.437 C 1140.72 770.553 1256.2 866.976 1268.49 993.777 C 1282.76 1141.1 1179.83 1251.65 1037.02 1264.92 C 974.922 1268.06 913.774 1249.29 866.202 1208.72 C 696.154 1063.68 786.886 790.728 1014.7 775.437 z"/>
</svg>